<?xml version="1.0" encoding="UTF-8"?>
<svg id="Layer_2" data-name="Layer 2" xmlns="http://www.w3.org/2000/svg" viewBox="0 0 169.28 85.49">
  <defs>
    <style>
      .cls-1 {
        fill: #000;
        stroke-width: 0px;
      }
    </style>
  </defs>
  <g id="Layer_1-2" data-name="Layer 1">
    <path class="cls-1" d="M0,79.28c1.17-2.8,2.82-3.62,5.79-2.64,1.34.44,2.61,1.16,3.84,1.89,4.2,2.5,7.01,2.25,10.56-1.1,3.64-3.44,6.16-7.71,8.55-12.04,3.78-6.84,6.79-14.03,9.61-21.3,1.58-4.07,3.14-8.16,4.62-12.26.27-.75.25-1.65.2-2.48-.07-1.27-.82-1.84-2.02-1.45-.89.29-1.81.72-2.48,1.34-2.58,2.38-3.76,5.27-2.94,8.82.18.8.21,1.66.19,2.49-.03,1.34-.79,2.23-1.82,2.28-1.04.05-2.17-.89-2.16-2.13,0-1.37.12-2.82.59-4.08,2.02-5.43,5.53-9.74,10.39-12.9,1.79-1.16,3.73-1.98,5.98-1.43,3.08.75,4.6,3.08,3.64,6.1-.73,2.3-1.82,4.49-2.75,6.73-.16.39-.31.78-.31,1.25,1.32-1.72,2.61-3.46,3.98-5.15,2.3-2.83,4.74-5.55,7.98-7.31,1.57-.86,3.38-1.42,5.14-1.74,1.9-.35,3.47.67,4.11,2.19.7,1.63.25,3.71-1.07,4.95-1.16,1.09-3.04,1.35-4.44.59-.17-.09-.34-.21-.5-.32-3.36-2.38-5.31-2.22-8.33.69-2.97,2.86-5.12,6.32-6.98,9.94-3.02,5.87-5.83,11.85-8.84,17.74-5.34,10.46-13.08,18.68-23.35,24.45-2.87,1.61-5.96,2.6-9.26,3-3.98.47-6.25-.82-7.92-4.67v-1.44h0Z"/>
    <path class="cls-1" d="M80.81,45.29c-2.76,3.01-5.41,6.15-8.33,9.01-4.94,4.85-10.28,9.23-16.65,12.12-1.78.81-3.77,1.36-5.71,1.55-3.01.29-4.42-1.25-4.57-4.32-.15-3,.75-5.74,2.05-8.37,3.26-6.56,8-11.98,13.3-16.93,6.01-5.62,12.53-10.54,20.19-13.68,2.81-1.15,5.85-1.76,8.83-2.44,1.09-.25,2.31-.07,3.44.09,1.88.27,2.33,1.13,1.69,2.94-.87,2.43-1.77,4.86-2.62,7.3-2.19,6.32-4.14,12.71-5.1,19.35-.46,3.16-.67,6.35.09,9.5.71,2.94,2.42,4.64,5.44,4.88,2.07.16,4.26.05,6.27-.44,4.01-.97,5.6-3.81,4.78-7.87-.82-4.06-2.65-7.73-4.31-11.48-1.35-3.05-2.73-6.1-3.94-9.21-1.63-4.2-.53-7.87,2.7-10.85,3.66-3.37,7.99-4.87,12.98-4.07.85.14,1.7.48,2.45.9,2.15,1.19,2.96,3.23,2.23,5.33-.78,2.23-2.95,3.69-5.22,3.23-.94-.19-1.88-.86-2.58-1.55-.81-.8-1.3-1.9-2.02-2.8-.56-.71-1.16-1.47-1.9-1.93-1.57-.98-3.33-.13-3.38,1.71-.05,1.43.07,3.01.63,4.3,1.62,3.71,3.49,7.32,5.29,10.95,1.75,3.53,3.59,7.03,4.14,11,.73,5.25-1.51,9.62-6.22,12.1-4.24,2.23-8.79,2.82-13.47,2.28-1.88-.22-3.79-.62-5.56-1.29-4.79-1.82-6.78-5.61-6.95-10.55-.11-3.24.8-6.3,1.64-9.37.13-.49.27-.98.39-1.38h0ZM81.84,26.81c-2.1.07-4.66,1.38-7.04,3-7.45,5.09-13.22,11.7-17.52,19.61-1.22,2.25-2.15,4.62-2.36,7.21-.19,2.4.71,3.35,3.1,3.19,2.16-.15,4.12-.96,5.91-2.1,9.04-5.77,15.77-13.59,20.3-23.28.66-1.42,1.07-3.01,1.29-4.57.35-2.44-.35-3.1-3.69-3.07h.01Z"/>
    <path class="cls-1" d="M147.04,28.63c-3.98-1.7-7.82-3.62-11.19-6.37-3.57-2.91-6.21-6.4-6.79-11.14-.3-2.44-.03-4.78,1.39-6.87,1.3-1.9,3.41-2.72,5.41-2.15,1.85.52,3.1,1.98,3.3,3.83.19,1.82-.71,3.58-2.25,4.43-1.62.89-3.79.73-5.17-.41-.34-.28-.61-.62-1.22-.89.12,1.01.14,2.04.37,3.03,1.77,7.6,10.26,14.14,18.04,13.8,1.59-.07,3.17-.68,4.74-1.11,3.03-.83,6.02-1.78,9.06-2.55,1.5-.38,3.02-.16,4.4.63,2,1.14,2.76,3.86,1.6,5.7-1.15,1.82-3.77,2.2-5.71.78-.71-.52-1.4-1.08-1.98-1.73-2-2.27-4.45-2.39-7.11-1.58-3.85,1.16-6.53,3.79-8.52,7.11-3.81,6.35-5.47,13.22-4.23,20.6.59,3.54,2.15,6.55,5.93,7.69,5.63,1.69,13.17-1.74,13.2-9.32,0-.89-.37-1.78-.54-2.67-.18-.97-.39-1.94-.44-2.92-.04-.9.39-1.66,1.33-1.89,1.01-.25,1.97.13,2.27,1.08.35,1.1.53,2.33.46,3.48-.45,7.37-7.26,16.06-14.28,18.32-5.11,1.64-10.89-.16-13.12-4.39-1.03-1.95-1.47-4.21-2.13-6.18-1.31,1.34-2.8,2.98-4.4,4.5-2.32,2.2-4.84,4.2-7.81,5.45-1.43.6-3.03.97-4.59,1.09-1.83.14-3.03-1.04-3.46-2.83-.43-1.77-.21-3.52.4-5.17,1.25-3.35,2.68-6.63,3.99-9.96,2.18-5.55,4.35-11.11,6.46-16.69.39-1.02.58-2.16.63-3.26.1-2.07-1.01-2.83-2.88-1.9-2.82,1.39-4.37,3.82-4.76,6.87-.17,1.31.23,2.68.3,4.02.04.79.12,1.64-.14,2.35-.21.58-.83,1.32-1.36,1.41-.6.1-1.64-.26-1.91-.74-.45-.8-.71-1.9-.58-2.81.6-4.17,2.84-7.55,5.51-10.68,1.82-2.13,3.88-4.02,6.39-5.34,1.61-.85,3.28-1.41,5.16-.95,2.82.68,4.49,2.93,3.69,5.7-1.25,4.35-2.72,8.64-4.31,12.88-2.01,5.36-4.24,10.64-6.35,15.97-.35.88-.61,1.81-.82,2.74-.46,2.08.69,3.24,2.66,2.42,1.54-.64,3.02-1.63,4.28-2.75,2.5-2.21,4.07-4.9,4.58-8.38.87-5.91,3.62-11.1,7.15-15.85,1.63-2.2,3.51-4.21,5.33-6.38l.02-.02Z"/>
    <path class="cls-1" d="M51.29,0c2.63,0,4.54,1.89,4.54,4.49,0,2.75-1.94,4.75-4.61,4.72-2.67-.03-4.71-2.1-4.67-4.72.06-2.61,2.05-4.49,4.74-4.49Z"/>
  </g>
</svg>